<svg xmlns="http://www.w3.org/2000/svg" xml:space="preserve" width="4000" height="200" data-id="lg_sILCtGzpHLWz3mnEVy" data-version="1" viewBox="0 0 2000 100"><g data-padding="20"><g transform="translate(10 1.786)scale(.96429)"><rect width="481.538" height="116.39" x="648.11" y="-58.4" fill="none" rx="0" ry="0" transform="matrix(.84 0 0 .84 357.63 51.35)"/><path fill="#e77917" d="M925.41 30.868q-2.158 0-4.283 1.814-2.117 1.822-3.587 6.014-1.47 4.2-1.47 10.777 0 6.401 1.857 10.164 1.865 3.763 4.242 5.233t4.107 1.47q1.563 0 3.2-1.083 1.647-1.075 2.857-2.293.176-.168.563-.605.394-.429.739-.429.428 0 1.033.345l7.358 4.065q.345.177 1.084.48.73.302 1.033.562t.303.69q0 .436-.26.948-1.9 3.21-5.965 6.577-4.065 3.377-11.247 3.377-5.628 0-10.778-4.2-5.15-4.192-8.257-11.458-3.116-7.274-3.116-16.01 0-8.652 2.982-15.574 2.99-6.92 7.66-10.81 4.67-3.898 9.602-3.898 6.14 0 9.903 2.554t5.41 4.888q.344.521.647.95.302.436.302.865 0 .52-.95 1.386-3.981 3.116-5.711 5.451-.865 1.126-1.47 1.69t-1.21.562-1.386-.866q-1.814-1.99-2.805-2.814-1-.823-2.386-.823m45.51-14.71q8.653 0 12.979 4.974 4.326 4.98 5.536 11.768 1.21 6.796 1.21 15.355 0 6.922-2.075 14.238-2.075 7.308-6.401 12.331-4.326 5.015-10.643 5.015-12.373 0-16.44-10.424t-4.064-22.37q0-11.507 3.158-18.429t7.703-9.685q4.536-2.772 9.038-2.772m-.084 41.707q2.336 0 3.46-2.596t1.127-6.233q0-3.46-1.084-6.056t-2.898-2.596q-2.167 0-3.242 2.982-1.084 2.99-1.084 6.452 0 3.544.689 5.796.697 2.25 3.032 2.25m44.21-40.497q5.275 0 11.247 2.814t10.467 10.257q4.502 7.434 4.502 20.244 0 11.676-5.578 17.69-5.586 6.015-11.726 7.703t-10.206 1.688l-7.098.084q-1.907.084-4.67.084-1.647 0-1.647-2.94l.084-2.25-.168-4.327-.092-3.889-.084-2.596q-.345-4.502-.345-10.214 0-3.368.345-8.904.344-5.544.344-9.089l-.084-11.592q-.084-1.386-.084-3.116 0-.95 1.252-1.168t2.637-.176q1.386.05 1.907.05l3.117-.176q3.628-.177 5.88-.177m.176 42.05q2.335-1.125 4.326-3.116 4.326-4.15 4.326-9.86 0-5.453-4.158-8.737-1.814-1.386-4.066-2.075.177 1.898.177 2.94 0 1.646-.177 4.754-.168 2.95-.168 4.326 0 2.252-.176 7.275-.084 1.47-.084 4.494m69.384-33.137q0 1.73-.26 3.2-.084 1.302-1.21 1.302-.344 0-.95-.176-.604-.168-.948-.26-1.302-.26-7.535-.26l-3.285-.085q-1.125-.084-3.284-.084-1.562 0-2.335.084-2.596.176-4.587.176l-4.586-.092q-.697 0-.781.302-.084.311-.084 1.428 0 1.563-.093 2.688-.168 3.461-.168 5.62v5.107q0 1.815.084 2.772.698.084 2.336.084 1.47.084 6.056.084 1.907 0 5.536-.168 2.772-.176 3.637-.176 1.21 0 2.419.126 1.218.134 1.823.134 1.125 0 1.125 1.033 0 .353-.092 1-.084.647-.084 1.688l.084 4.587q0 .773-.168 1.075-.176.302-.605.302-.26 0-.74-.126t-.822-.126q-.773 0-2.898-.092-2.117-.084-5.754-.084-3.89 0-6.745.344-2.856.345-3.461.345-.95 0-1.126-.084-.437 0-.52-.084v8.652q.604 0 .949-.093l2.427-.084 10.206-.084q3.117 0 4.93.084l5.973.084 3.638-.084q1.033 0 1.377.48.353.47.353 1.335l-.092 1.73-.084 6.057q0 1.386-.605 1.688t-1.73.26-1.815-.042q-3.721 0-6.41-.084l-8.82-.092q-1.04 0-10.382.26l-3.292.093-.513.084q-.52 0-.605-.303-.092-.302-.092-1.167-.084-.95-.084-3.2 0-.698-.084-1.52-.092-.816-.092-2.2V57.863q0-1.73.134-3.377.126-1.646.126-2.42.344-3.98.344-7.618 0-4.494-.252-7.09-.176-2.948-.176-5.367 0-5.452.26-12.718 0-1.125.429-1.512.437-.395 1.218-.395l1.293.093q.782 0 2.512.126 1.73.134 4.234.134 2.856 0 6.753-.437 4.67-.344 6.225-.344 3.553 0 6.493.26l3.116.084q1.126 0 1.47.521t.345 1.9q0 .78.176 2.687.168 2.25.168 3.89m28.29-10.383q8.225 0 13.542 3.243 5.326 3.25 8.266 6.19.344.345.344.782 0 .26-.218.647-.21.386-.303.562-.428.605-1.428 2.117-.991 1.512-1.596 2.21-.26.344-.563.73-.302.395-.52.563-.22.176-.647.176-.177 0-.823-.562t-1.252-.992q-3.46-3.032-6.754-5.19-3.284-2.168-6.316-2.168-2.42 0-3.974 1.084-1.562 1.083-1.562 4.888 0 3.722 2.772 5.796 2.764 2.075 7.35 3.982.437.168 5.065 2.16t8.215 7.618q3.596 5.62 3.596 13.406 0 8.308-6.233 12.457-6.225 4.158-17.22 4.158-12.457 0-15.826-4.805-3.377-4.804-3.553-4.972-.344-.437-.344-.866 0-.26.688-1.125 1.126-1.563 3.293-3.72.345-.346.689-.346.437 0 .958.647.512.647.865.991 5.099 5.107 11.592 5.107 3.284 0 5.712-1.25 2.419-1.26 2.419-4.722 0-5.964-9.433-12.718-1.554-1.033-2.94-1.73-3.637-1.99-6.233-3.89-2.596-1.906-4.578-5.022-1.99-3.108-1.99-7.266 0-5.192 3.242-9.34 3.242-4.159 7.786-6.494 4.545-2.336 7.913-2.336m40.404 4.242q.865 3.024 2.25 7.182l.606 1.991q1.302 4.41 2.083 6.14 1.118 2.596 2.42 6.578l1.386 4.15.688-2.16q.52-1.906 1.21-3.72l.958-2.596.865-2.25.865-2.253q.689-1.898 1.033-2.503.697-1.386 1.689-4.46 1-3.075 1.512-5.494.436-1.73 1.083-2.159.647-.436 1.344-.394.689.042.865.042.26 0 2.16-.042 1.906-.042 3.292.134 1.814.26 1.814.865 0 .084-.176.773-.168.437-.386 1.084t-.48 1.428q-2.074 6.14-2.68 7.526-1.553 3.805-3.762 9.517t-3.763 9.862q-1.042 3.032-4.67 12.03-3.117 7.441-3.377 8.567-.345 1.033-.731 3.326-.395 2.293-.563 2.99-.437 1.815-1.386 1.73h-2.335q-.521.085-3.461.085l-3.2.084q-1.042 0-1.042-.52 0-.253.126-.47.134-.22.218-.48l.95-2.596q1.99-5.62 2.083-5.796.168-.689 1.638-4.67l.697-1.73q.168-.437.52-1.168.345-.74.387-1.21.042-.479-.134-.915-.168-.252-.773-2.504-.176-.52-.697-2.293-.513-1.772-1.033-2.73-.521-1.293-1.386-4.233-.605-1.99-1.126-3.554-1.386-3.805-3.42-9.777-2.032-5.964-3.241-9.6-.437-1.387-1.126-2.765-.605-1.386-.605-1.823 0-.605.647-.823.647-.21 1.949-.302.344-.084 1.386-.084 1.294 0 2.075.084 2.856 0 3.545.092.697.084.907.344.218.26.218.69 0 .436.084.78m42.663-4.754 7.359-.084q1.898 0 2.814.386.907.395 1.428 1.344.865 1.814 2.159 4.67l3.2 6.922 4.066 8.912q1.125 2.428 2.94 6.401 1.822 3.982 2.595 5.544 1.479 3.024 1.907 3.721l2.42 4.755 2.687 5.275-.176-5.015-.345-8.475v-2.596q0-4.763.177-9.61 0-3.628-.093-5.88l-.084-6.577.345-8.307q0-1.294 1.302-1.294.428 0 1.73.26.773.168 1.638.168h1.386q.697 0 .907.177.219.168.219.605 0 .344-.084.78-.093.43-.093.95l-.084 7.442-.168 17.472-.092 2.512q0 2.94.092 5.368.084 2.42.168 3.973.26 3.721.26 6.233 0-.345.26 10.298l.178 4.847v.168q0 1.73-1.647 1.562-.26-.092-1.041-.092l-2.504.092h-.52q-.605 0-.908-.26-.302-.26-1-1.47-.26-.613-.688-1.73-.437-1.126-1.042-2.512-3.72-9.35-5.36-12.718-1.906-3.637-9.61-20.857-1.73-3.545-3.888-7.526l-2.511-4.494.26 8.215.084 5.107q.177 5.712.177 7.526 0 7.098.26 14.28l.084 6.746q0 1.814.176 5.275l.168 3.032v.168q0 .865-.428 1.126-.437.26-1.21.26l-1.906.084q-1.815.26-3.898.26-2.42 0-3.973.093l-4.42.084q-1.292 0-1.73-.479-.427-.47-.511-1.075-.093-.613-.177-.865-.344-1.563-.344-3.814 0-2.075.084-3.545 0-4.502.176-10.508.168-6.014.429-8.61l.436-6.149q1.034-14.355 1.034-16.178 0-6.83.26-10.206.176-2.335 2.428-2.335.688 0 1.293.084t.95.084m70.072 15.482q-2.158 0-4.275 1.814-2.125 1.822-3.595 6.014-1.47 4.2-1.47 10.777 0 6.401 1.856 10.164 1.865 3.763 4.242 5.233t4.108 1.47q1.562 0 3.2-1.083 1.647-1.075 2.856-2.293.177-.168.563-.605.395-.429.74-.429.428 0 1.032.345l7.359 4.065q.344.177 1.083.48.73.302 1.034.562.302.26.302.69 0 .436-.26.948-1.9 3.21-5.964 6.577-4.066 3.377-11.248 3.377-5.628 0-10.777-4.2-5.141-4.192-8.257-11.458-3.117-7.274-3.117-16.01 0-8.652 2.982-15.574 2.99-6.92 7.66-10.81 4.67-3.898 9.602-3.898 6.14 0 9.912 2.554 3.763 2.553 5.4 4.888.346.521.657.95.302.436.302.865 0 .52-.958 1.386-3.981 3.116-5.712 5.451-.865 1.126-1.47 1.69-.604.562-1.21.562t-1.385-.866q-1.815-1.99-2.806-2.814-1-.823-2.385-.823M870.039-.062h-120.08a3.16 3.16 0 0 0-3.16 3.16v71.1a3.17 3.17 0 0 0 3.16 3.16h120.08a3.16 3.16 0 0 0 3.16-3.16v-71.1a3.16 3.16 0 0 0-3.16-3.16m-3.16 64.78h-113.76V6.258h113.76Z"/><path fill="#e77917" d="M795.779 74.198h28.44v18.96h-28.44Z"/><path fill="#e77917" d="M784.719 89.998h50.56v4.74h-50.56Zm13.146-40.464-23.29-10.349v-3.95l23.29-11.676V30.4l-14.284 6.526 14.284 5.798Zm22.514-30.066-12.56 34.617h-7.964L812.4 19.467Zm1.754 23.256 14.284-5.814-14.284-6.51v-6.84l23.29 11.643v3.966l-23.29 10.35Z"/></g><path fill="transparent" stroke="transparent" d="M720 0h560v100H720z"/></g></svg>